<svg width="304" height="472" viewBox="0 0 304 472" fill="none" xmlns="http://www.w3.org/2000/svg">
<g clip-path="url(#clip0_1_671)">
<g clip-path="url(#clip1_1_671)">
<g clip-path="url(#clip2_1_671)">
<path d="M299.531 121.726C298.437 121.181 297.336 120.644 296.215 120.158C279.176 112.779 262.138 105.396 245.086 98.047C241.965 96.7018 238.779 95.5041 235.588 94.2227C235.287 95.1811 235.067 95.5573 235.067 95.9327C235.065 105.724 235.252 115.517 235.038 125.303C234.913 131.122 237.828 139.076 233.843 142.165C230.132 145.041 222.498 142.667 216.621 143.051C212.746 143.303 211.742 141.889 211.781 138.239C211.947 123.351 211.161 108.412 212.168 93.5889C212.691 85.8758 209.778 83.1072 203.426 80.3318C147.155 55.7539 91.0052 30.9024 34.8583 6.04333C16.5959 -2.04138 16.7221 -1.99578 -1.21048 6.06841C-79.7487 41.3947 -158.606 75.9953 -237.73 109.986C-247.1 114.01 -256.502 117.956 -265.904 121.904C-268.692 123.076 -271.076 124.54 -270.923 128.025C-270.776 131.314 -268.061 132.204 -265.67 133.311C-264.565 133.821 -263.362 134.119 -262.215 134.542C-224.507 148.479 -186.813 162.447 -149.078 176.31C-145.278 177.705 -143.914 179.783 -143.966 183.956C-144.239 205.576 -144.22 227.199 -144.177 248.822C-144.146 263.904 -137.444 274.18 -123.049 279.035C-117.62 280.866 -117.091 283.501 -117.1 288.156C-117.205 338.54 -117.154 388.922 -117.137 439.306C-117.137 441.754 -116.984 444.204 -117.059 446.648C-117.161 449.975 -115.894 451.326 -112.345 451.113C-106.433 450.759 -100.464 450.493 -94.5707 450.914C-89.3298 451.288 -88.2621 449.356 -88.2795 444.446C-88.4467 392.84 -88.3669 341.233 -88.3783 289.628C-88.3783 283.508 -88.7796 277.38 -88.5303 271.276C-88.2415 264.252 -85.1264 261.526 -78.0897 261.479C-69.093 261.416 -60.0956 261.462 -51.0989 261.388C-41.0025 261.307 -38.5606 263.651 -38.534 273.979C-38.452 305.799 -38.3896 337.62 -38.382 369.439C-38.3745 397.383 -38.4695 425.329 -38.4596 453.276C-38.4596 455.561 -39.2044 458.104 -36.001 459.463C-28.3001 462.733 -20.7367 466.299 -13.4295 470.419C-10.461 472.094 -8.26163 471.042 -8.22134 467.252C-8.20386 465.629 -8.31631 464.004 -8.37103 462.379C-9.97156 460.417 -9.35675 458.077 -9.35675 455.901C-9.37955 400.885 -9.36664 345.87 -9.32864 290.855C-9.32864 288.872 -9.8591 286.74 -8.29126 285.011C-8.20993 280.331 -8.25934 275.643 -8.01764 270.971C-7.66959 264.248 -4.69348 261.394 1.9556 261.358C12.1774 261.304 22.4022 261.358 32.6263 261.403C40.885 261.439 43.3968 264.024 43.3953 272.459C43.3892 314.275 43.3648 356.09 43.3648 397.908C43.3648 420.345 43.3344 442.784 43.4515 465.221C43.4865 471.588 44.8027 472.256 50.1629 468.861C56.0642 465.124 62.4085 462.306 68.876 459.833C72.2883 458.529 73.3728 456.777 73.331 453.152C73.1068 433.368 73.1562 413.582 73.1349 393.796C73.0909 353.817 73.0437 313.837 73.0437 273.857C73.0437 263.701 75.5251 261.345 85.7894 261.369C94.3772 261.39 102.967 261.415 111.554 261.462C121.067 261.515 123.175 263.739 123.173 273.539C123.165 319.231 123.168 364.924 123.177 410.614C123.179 422.241 123.349 433.869 123.179 445.494C123.118 449.708 124.562 451.207 128.84 451.025C135.163 450.755 141.518 450.964 147.85 451.177C150.485 451.265 151.519 450.459 151.432 447.747C151.279 443.061 151.42 438.366 151.422 433.673C151.441 384.922 151.485 336.17 151.428 287.418C151.424 283.394 152.067 281.157 156.727 279.61C171.475 274.717 179.025 262.568 178.673 248.038C178.148 226.43 178.59 204.798 178.723 183.177C178.735 181.131 177.779 178.434 180.713 177.346C191.578 173.323 202.464 169.354 213.726 165.224C213.726 175.961 213.686 185.935 213.755 195.908C213.771 198.41 213.05 199.738 210.493 200.909C203.952 203.9 199.879 212.126 202.119 218.664C203.778 223.511 203.03 227.537 202.229 232.435C198.918 252.717 196.636 273.176 194.393 293.614C193.508 301.669 195.064 302.987 203.112 303.051C217.423 303.165 231.737 303.069 246.049 303.155C251.319 303.188 253.607 300.639 253.072 295.562C252.282 288.065 251.761 280.508 250.389 273.112C247.472 257.38 248.606 240.978 242.502 225.783C241.949 224.409 243.188 223.557 243.666 222.491C247.384 214.183 245.248 205.94 237.657 201.169C235.287 199.679 234.165 198.345 234.217 195.494C234.42 184.484 234.571 173.465 234.337 162.457C234.255 158.638 235.94 156.932 239.092 155.742C246.92 152.786 254.706 149.714 262.539 146.765C274.756 142.163 287.022 137.685 299.207 133.001C301.725 132.033 305.008 131.441 304.966 127.604C304.928 124.039 302.091 122.997 299.535 121.724L299.531 121.726ZM-87.151 144.689C-88.9552 140.625 -92.7946 140.823 -96.1477 142.089C-103.377 144.818 -110.441 147.979 -117.936 151.117C-119.321 146.26 -118.895 143.331 -113.866 140.858C-90.2981 129.268 -65.0643 123.802 -39.4019 119.752C-29.1057 118.127 -18.7273 117.239 -8.29883 117.004C-6.87387 115.962 -5.20343 116.125 -3.58392 116.066C25.6732 114.988 54.6787 116.676 83.4715 122.498C105.13 126.878 126.284 132.675 146.723 141.041C148.392 141.724 150.341 141.984 151.515 143.588C152.695 145.203 152.66 147.089 152.238 148.87C151.811 150.673 150.499 149.991 149.348 149.521C133.822 143.18 117.613 139.09 101.403 135.011C100.837 134.941 100.237 134.747 99.688 134.58C67.5916 128.535 35.1654 128.809 2.71103 129.452C-0.919403 129.524 -3.8537 130.23 -4.58633 134.266C-5.30603 138.228 -4.04977 141.089 0.345978 141.817C38.314 139.304 75.7249 143.241 112.645 151.963C125.177 154.924 137.053 160.034 148.861 165.152C152.179 166.591 154.114 172.3 152.626 175.34C151.996 176.625 151.163 176.502 150.171 176.052C137.116 170.131 122.974 167.479 109.56 162.637C79.2794 156.598 48.6619 154.615 17.8431 155.066C12.5429 155.145 7.2337 155.379 1.94803 155.146C-2.84747 154.933 -5.07727 157.754 -5.14569 161.637C-5.21408 165.546 -2.92499 168.561 1.70938 168.574C9.04779 168.597 16.3831 168.633 23.7208 168.663C39.2351 167.931 54.6635 168.707 70.1186 170.335C88.0557 172.226 105.421 176.437 122.73 181.226C132.025 183.797 140.733 187.781 149.658 191.256C154.573 193.171 152.445 197.212 152.287 200.624C152.283 200.704 151.989 200.852 151.857 200.827C151.671 200.791 151.513 200.622 151.342 200.51C61.3962 172.227 -28.443 173.689 -118.376 200.799C-119.694 196.099 -118.005 193.004 -112.404 191.112C-105.472 188.768 -98.8996 185.367 -92.1653 182.436C-87.2863 180.314 -85.0709 176.54 -86.9914 171.614C-88.9947 166.475 -93.5371 167.635 -97.4434 169.06C-104.313 171.563 -111.065 174.389 -118.043 177.151C-120.143 171.081 -118.998 167.054 -112.317 164.837C-106.541 162.922 -101.088 160.027 -95.5237 157.496C-93.4877 156.57 -91.4707 155.558 -89.5768 154.372C-85.7313 151.963 -85.5542 148.289 -87.1533 144.69L-87.151 144.689ZM154.088 242.206C153.732 244.574 152.857 244.897 150.948 244.328C116.453 234.037 80.9612 236.199 45.6684 236.032C16.8399 235.895 -11.9886 236.049 -40.8178 235.976C-66.3996 235.913 -91.8454 237.021 -116.644 244.105C-118.899 244.749 -120.153 244.66 -120.077 241.875C-119.982 238.412 -119.964 234.937 -120.103 231.475C-120.254 227.755 -117.144 227.334 -114.882 226.43C-98.1609 219.757 -80.9229 214.813 -63.1879 211.668C-36.7716 206.984 -10.1677 204.525 16.7031 205.075C59.9781 205.536 102.751 209.366 143.793 224.492C154.708 228.516 155.831 230.617 154.085 242.204L154.088 242.206ZM221.714 279.65C216.023 281.011 214.495 279.13 215.041 274.17C216.264 263.06 216.98 251.894 218.057 240.767C218.2 239.304 217.212 236.73 220.371 236.793C223.027 236.846 223.041 238.864 223.233 240.647C224.538 252.775 225.937 264.895 227.018 277.044C227.509 282.544 222.831 278.676 221.713 279.652L221.714 279.65Z" fill="white"/>
<path d="M19.1434 310.945C14.205 310.736 11.8323 313.866 11.6857 318.679C11.6173 320.918 11.6059 323.159 11.6059 325.401C11.6005 345.572 11.6021 365.745 11.6021 385.917H11.4995C11.4995 407.107 11.4843 428.297 11.5185 449.487C11.5223 451.922 11.5717 454.397 12.0033 456.781C12.66 460.406 15.4727 461.678 18.7702 461.666C21.8854 461.655 24.3515 460.169 25.0576 456.936C25.4877 454.973 25.5105 452.894 25.5136 450.867C25.5842 419.693 25.6245 388.519 25.664 357.345C25.6815 344.51 25.6245 331.674 25.7157 318.838C25.7499 314.219 23.7542 311.14 19.1419 310.945H19.1434ZM106.391 378.973V378.362C106.418 359.009 106.45 339.656 106.469 320.303C106.475 313.163 102.718 309.883 96.7545 311.707C92.5586 312.991 92.0623 316.268 92.0547 319.914C92.0144 341.915 91.927 363.917 91.9096 385.918C91.8966 402.215 91.965 418.513 92.0008 434.81C92.003 436.033 92.0274 437.255 92.0471 438.477C92.117 443.015 94.3187 446.211 98.9006 446.148C103.518 446.084 106.25 443.336 106.229 438.254C106.153 418.494 106.199 398.733 106.199 378.973H106.391ZM101.396 135.011C100.827 134.867 100.258 134.724 99.6865 134.58C100.235 134.747 100.833 134.941 101.396 135.011ZM223.232 240.647C223.039 238.864 223.026 236.846 220.37 236.793C217.211 236.73 218.197 239.304 218.055 240.767C216.977 251.895 216.261 263.06 215.04 274.171C214.493 279.132 216.022 281.011 221.713 279.65C222.834 278.675 227.51 282.542 227.019 277.042C225.936 264.894 224.539 252.774 223.233 240.646L223.232 240.647Z" fill="white"/>
</g>
</g>
</g>
<defs>
<clipPath id="clip0_1_671">
<rect width="304" height="471.19" fill="white"/>
</clipPath>
<clipPath id="clip1_1_671">
<rect width="304" height="471.19" fill="white"/>
</clipPath>
<clipPath id="clip2_1_671">
<rect width="306.273" height="471.19" fill="white" transform="translate(-1.13672)"/>
</clipPath>
</defs>
</svg>
