<svg width="16" height="17" viewBox="0 0 16 17" fill="none" xmlns="http://www.w3.org/2000/svg">
<g clip-path="url(#clip0_1_466)">
<path d="M14.5 8.96995C14.4979 10.5586 13.9151 12.0916 12.8612 13.2804C11.8072 14.4691 10.355 15.2314 8.7781 15.4237C8.74298 15.4277 8.70743 15.4242 8.67377 15.4134C8.64011 15.4026 8.60912 15.3848 8.58284 15.3612C8.55656 15.3376 8.53559 15.3087 8.5213 15.2763C8.50702 15.244 8.49975 15.209 8.49997 15.1737V10.47H9.99997C10.0685 10.4701 10.1364 10.4562 10.1993 10.429C10.2622 10.4018 10.3189 10.362 10.3658 10.312C10.4127 10.262 10.4488 10.2029 10.4719 10.1384C10.4949 10.0738 10.5045 10.0052 10.5 9.93683C10.4889 9.80826 10.4296 9.68863 10.3339 9.60202C10.2383 9.5154 10.1134 9.46822 9.98435 9.46995H8.49997V7.96995C8.49997 7.70474 8.60533 7.45038 8.79286 7.26285C8.9804 7.07531 9.23476 6.96995 9.49997 6.96995H10.5C10.5685 6.97011 10.6364 6.95616 10.6993 6.92899C10.7622 6.90182 10.8189 6.86199 10.8658 6.812C10.9127 6.762 10.9488 6.7029 10.9719 6.63836C10.9949 6.57382 11.0045 6.50522 11 6.43683C10.9889 6.30804 10.9294 6.18823 10.8335 6.10159C10.7376 6.01494 10.6123 5.9679 10.4831 5.96995H9.49997C8.96954 5.96995 8.46083 6.18067 8.08576 6.55574C7.71069 6.93081 7.49997 7.43952 7.49997 7.96995V9.46995H5.99997C5.93143 9.4698 5.86358 9.48375 5.80066 9.51092C5.73773 9.53809 5.68106 9.57792 5.63417 9.62791C5.58728 9.67791 5.55117 9.73701 5.52809 9.80155C5.505 9.86609 5.49543 9.93469 5.49997 10.0031C5.51103 10.1319 5.57052 10.2517 5.66645 10.3383C5.76238 10.425 5.8876 10.472 6.01685 10.47H7.49997V15.175C7.50019 15.2102 7.49293 15.2452 7.47868 15.2774C7.46444 15.3097 7.44352 15.3386 7.41731 15.3622C7.3911 15.3858 7.36019 15.4036 7.32661 15.4144C7.29303 15.4253 7.25754 15.4288 7.22247 15.425C5.60332 15.2278 4.1172 14.4299 3.05827 13.1892C1.99934 11.9486 1.44477 10.3556 1.50435 8.72558C1.62935 5.35058 4.3631 2.60683 7.7406 2.47558C8.61503 2.44171 9.48731 2.58455 10.3053 2.89556C11.1232 3.20657 11.87 3.67935 12.5011 4.28564C13.1321 4.89193 13.6344 5.61926 13.9778 6.42413C14.3213 7.229 14.4989 8.09487 14.5 8.96995Z" fill="#06625F"/>
</g>
<defs>
<clipPath id="clip0_1_466">
<rect y="0.970703" width="16" height="16" rx="8" fill="white"/>
</clipPath>
</defs>
</svg>
