<svg width="101" height="100" viewBox="0 0 101 100" fill="none" xmlns="http://www.w3.org/2000/svg">
<g clip-path="url(#clip0_1_1160)">
<path d="M97.9535 28.2366L51.0785 9.4866C50.7062 9.3378 50.2909 9.3378 49.9185 9.4866L3.04354 28.2366C2.75292 28.3521 2.50368 28.5522 2.32808 28.811C2.15247 29.0698 2.05859 29.3754 2.05859 29.6881C2.05859 30.0008 2.15247 30.3064 2.32808 30.5652C2.50368 30.8239 2.75292 31.0241 3.04354 31.1396L49.9185 49.8906C50.2905 50.0396 50.7065 50.0396 51.0785 49.8906L77.8505 39.1806C78.2187 39.0156 78.5089 38.7146 78.6602 38.3405C78.8115 37.9665 78.8124 37.5484 78.6625 37.1738C78.5127 36.7992 78.2238 36.497 77.8562 36.3305C77.4887 36.1641 77.071 36.1462 76.6905 36.2806L50.4985 46.7546L7.82954 29.6886L50.4985 12.6206L93.1675 29.6886L88.9815 31.3616C88.694 31.4758 88.4469 31.6729 88.2715 31.9278C88.0961 32.1826 88.0004 32.4838 87.9964 32.7932C87.9924 33.1026 88.0804 33.4061 88.2492 33.6654C88.418 33.9247 88.66 34.128 88.9445 34.2496C89.1331 34.3305 89.3358 34.3735 89.5411 34.3761C89.7463 34.3787 89.95 34.3408 90.1405 34.2646L97.9535 31.1396C98.2438 31.0237 98.4926 30.8234 98.6678 30.5647C98.8431 30.3059 98.9368 30.0006 98.9368 29.6881C98.9368 29.3756 98.8431 29.0702 98.6678 28.8115C98.4926 28.5528 98.2438 28.3525 97.9535 28.2366Z" fill="#06625F"/>
<path d="M77.063 42.1885C76.6486 42.1885 76.2512 42.353 75.9581 42.6459C75.6651 42.9388 75.5003 43.3361 75.5 43.7505V61.7375C68.3488 67.289 59.5531 70.3023 50.5 70.3023C41.4469 70.3023 32.6512 67.289 25.5 61.7375V43.7505C25.4897 43.3429 25.3205 42.9555 25.0286 42.6709C24.7367 42.3863 24.3452 42.227 23.9375 42.227C23.5298 42.227 23.1383 42.3863 22.8464 42.6709C22.5545 42.9555 22.3853 43.3429 22.375 43.7505V62.5005C22.375 62.7356 22.428 62.9677 22.5302 63.1795C22.6323 63.3912 22.781 63.5772 22.965 63.7235C30.7685 70.0027 40.4838 73.4261 50.5 73.4261C60.5162 73.4261 70.2315 70.0027 78.035 63.7235C78.219 63.5771 78.3676 63.3912 78.4697 63.1794C78.5719 62.9677 78.625 62.7356 78.625 62.5005V43.7505C78.625 43.336 78.4603 42.9384 78.1672 42.6453C77.8741 42.3522 77.4765 42.1875 77.062 42.1875L77.063 42.1885Z" fill="#06625F"/>
<path d="M86.437 58.1247V34.6867C86.4367 34.3232 86.3097 33.9712 86.0779 33.6913C85.8461 33.4113 85.524 33.2209 85.167 33.1527L50.793 26.5907C50.5882 26.5435 50.376 26.5381 50.1691 26.5748C49.9622 26.6115 49.7648 26.6895 49.5887 26.8042C49.4126 26.9189 49.2615 27.068 49.1443 27.2424C49.0272 27.4169 48.9464 27.6132 48.9068 27.8196C48.8673 28.026 48.8698 28.2382 48.9141 28.4436C48.9585 28.649 49.0438 28.8434 49.165 29.0151C49.2861 29.1868 49.4407 29.3323 49.6194 29.4429C49.7981 29.5534 49.9973 29.6269 50.205 29.6587L83.311 35.9787V58.1247C79.829 59.4607 79.574 63.9517 80.931 67.4247L78.635 87.3217C78.6045 87.5941 78.6463 87.8697 78.756 88.1209C78.8657 88.372 79.0395 88.5899 79.26 88.7527C80.8828 89.9698 82.8565 90.6277 84.885 90.6277C86.9135 90.6277 88.8872 89.9698 90.51 88.7527C90.7305 88.5899 90.9043 88.372 91.014 88.1209C91.1237 87.8697 91.1654 87.5941 91.135 87.3217L88.818 67.4227C90.174 63.9477 89.918 59.4587 86.436 58.1247H86.437ZM84.874 60.9377C86.794 60.9377 86.593 63.9997 86.057 65.8337C85.274 65.9637 84.475 65.9637 83.693 65.8337C83.155 63.9977 82.953 60.9377 84.874 60.9377ZM81.849 86.7177L83.893 69.0007C84.544 69.089 85.204 69.089 85.855 69.0007L87.899 86.7197C86.9705 87.2242 85.9306 87.4885 84.874 87.4885C83.8173 87.4885 82.7774 87.2242 81.849 86.7197V86.7177Z" fill="#06625F"/>
</g>
<defs>
<clipPath id="clip0_1_1160">
<rect width="100" height="100" fill="white" transform="translate(0.5)"/>
</clipPath>
</defs>
</svg>
