<svg width="70" height="71" viewBox="0 0 70 71" fill="none" xmlns="http://www.w3.org/2000/svg">
<g clip-path="url(#clip0_1_906)">
<g clip-path="url(#clip1_1_906)">
<g clip-path="url(#clip2_1_906)">
<mask id="mask0_1_906" style="mask-type:luminance" maskUnits="userSpaceOnUse" x="0" y="0" width="70" height="71">
<path d="M0 0.370117H70V70.3701H0V0.370117Z" fill="white"/>
</mask>
<g mask="url(#mask0_1_906)">
<path d="M5.59273 37.6997C4.53273 39.0047 3.90173 40.0267 4.03273 41.0807C4.1422 41.5418 4.34711 41.9749 4.63424 42.3519C4.92136 42.7289 5.28433 43.0416 5.69973 43.2697C6.07673 43.5337 6.47673 43.7667 6.89273 43.9647C7.38773 44.2177 8.21273 44.6397 8.26973 44.9417C8.34473 45.3297 8.29973 45.7317 8.14373 46.0957C7.97373 46.4557 7.79973 46.7657 7.64573 47.0367C7.19773 47.8287 6.52473 49.0257 7.58173 49.9187C7.82973 50.1377 8.25373 50.4717 8.64173 50.7677C8.35453 51.2721 8.22562 51.8512 8.27173 52.4297C8.33373 52.8797 8.57773 53.2827 8.94573 53.5457C9.20273 53.7277 9.47573 53.8897 9.74873 54.0417C10.4217 54.4267 10.6847 54.6057 10.7747 54.9597C10.8597 55.3917 10.8257 55.8397 10.6787 56.2547C10.2965 57.6027 10.3604 59.0381 10.8607 60.3467C11.1461 61.3956 11.8228 62.2951 12.7515 62.8599C13.6802 63.4247 14.7902 63.6118 15.8527 63.3827C19.1217 62.5927 22.3454 61.6259 25.5097 60.4867C28.0797 62.0127 29.7047 66.6227 30.1287 68.3507C30.2537 68.8657 30.7147 69.2267 31.2437 69.2267H60.1837C60.3631 69.2267 60.5401 69.1847 60.7003 69.1039C60.8605 69.0232 60.9996 68.906 61.1063 68.7618C61.2131 68.6177 61.2846 68.4504 61.315 68.2736C61.3455 68.0968 61.3341 67.9153 61.2817 67.7437C60.976 66.9351 60.5402 66.1819 59.9917 65.5137C59.6819 65.1169 59.406 64.6947 59.1667 64.2517C57.7341 61.0638 56.8419 57.6596 56.5267 54.1787C56.1197 50.7472 56.6347 47.2691 58.0187 44.1027C58.8427 42.3874 59.8596 40.7716 61.0497 39.2867C63.3207 36.2177 65.8937 32.7457 65.9777 26.8287C66.046 23.5392 65.6426 20.2568 64.7797 17.0817C63.6244 13.1388 61.2233 9.67611 57.9357 7.21173C48.8897 0.0987344 41.0997 -1.20627 27.0647 2.03273C23.2547 2.91173 18.9397 4.25273 15.8337 7.54073C13.8097 9.70528 12.2479 12.2596 11.2437 15.0477C10.8182 16.2758 10.4712 17.5297 10.2047 18.8017L10.1127 19.1987C9.85886 20.1248 9.51975 21.0253 9.09973 21.8887C8.48812 22.9336 8.16253 24.1211 8.15573 25.3317C8.38801 26.3566 8.98065 27.2641 9.82573 27.8887C10.3867 28.4037 10.7557 28.7667 10.7587 29.0967C10.7152 29.2692 10.6479 29.4348 10.5587 29.5887C9.199 32.4633 7.53409 35.1832 5.59273 37.7017V37.6997ZM11.3767 26.1897C10.9167 25.7647 10.4767 25.3637 10.4267 25.0097C10.5661 24.245 10.8249 23.507 11.1937 22.8227C11.6737 21.8247 12.0577 20.7837 12.3417 19.7137L12.4347 19.3137C12.6787 18.1357 12.9977 16.9737 13.3907 15.8367C14.2895 13.3401 15.6869 11.0523 17.4977 9.11273C20.1777 6.27573 23.9237 5.10573 27.5777 4.26273C39.3217 1.55373 47.0187 1.54373 56.5157 9.01373C59.4307 11.1692 61.5573 14.2223 62.5687 17.7037C63.3739 20.6655 63.751 23.7272 63.6887 26.7957C63.6157 31.9697 61.4757 34.8597 59.2127 37.9257C57.918 39.5473 56.8138 41.3122 55.9217 43.1857C54.3723 46.7266 53.7952 50.6166 54.2497 54.4547C54.5927 58.1873 55.5573 61.8363 57.1037 65.2507C57.3987 65.8197 57.7437 66.3607 58.1367 66.8677C58.1537 66.8887 58.1687 66.9107 58.1847 66.9327H32.1097C31.3495 64.2088 29.9684 61.6981 28.0747 59.5977L28.9417 59.2937C29.5421 59.0792 30.1448 58.8712 30.7497 58.6697C35.6587 57.1247 38.1137 54.8827 38.0467 52.0227C38.0455 51.8714 38.0139 51.7219 37.9538 51.583C37.8937 51.4441 37.8063 51.3187 37.6968 51.2143C37.5873 51.1098 37.4579 51.0284 37.3164 50.9749C37.1748 50.9214 37.0239 50.8968 36.8727 50.9027C36.5684 50.9098 36.2794 51.0375 36.0691 51.2576C35.8589 51.4778 35.7448 51.7724 35.7517 52.0767C35.7797 53.2597 34.8147 54.9847 30.0567 56.4807C29.7227 56.5867 29.0587 56.8197 28.1807 57.1287C27.3567 57.4177 26.3397 57.7757 25.2247 58.1607H25.2177C21.9966 59.3303 18.7145 60.3244 15.3857 61.1387C14.8697 61.2392 14.3348 61.1346 13.8947 60.847C13.4546 60.5595 13.144 60.1117 13.0287 59.5987C12.6699 58.7021 12.6293 57.7096 12.9137 56.7867C13.1508 56.0148 13.1811 55.1941 13.0017 54.4067C12.8394 53.8864 12.5667 53.4073 12.2022 53.0021C11.8377 52.5968 11.39 52.2751 10.8897 52.0587L10.6447 51.9177C10.7677 51.6657 10.9147 51.4277 11.0847 51.2047C11.1789 51.0841 11.2481 50.9458 11.2881 50.7981C11.3281 50.6503 11.3381 50.4961 11.3176 50.3444C11.2971 50.1927 11.2465 50.0467 11.1687 49.9148C11.0909 49.783 10.9876 49.668 10.8647 49.5767C10.3927 49.2257 9.92566 48.868 9.46373 48.5037C9.52173 48.3957 9.58873 48.2737 9.64873 48.1707C9.82473 47.8597 10.0257 47.4987 10.2217 47.0887C10.5887 46.2866 10.6967 45.3901 10.5307 44.5237C10.2637 43.1157 8.92373 42.4307 7.94273 41.9287C7.64213 41.7868 7.35235 41.6231 7.07573 41.4387C6.80441 41.2494 6.5486 41.0387 6.31073 40.8087C6.31073 40.7487 6.37273 40.3797 7.37473 39.1477C9.42111 36.5031 11.1747 33.6444 12.6047 30.6217C12.8807 30.1487 13.0347 29.6137 13.0527 29.0667C12.9963 28.495 12.8173 27.9421 12.5281 27.4457C12.2389 26.9492 11.8462 26.5209 11.3767 26.1897Z" fill="white"/>
<path d="M37.2952 35.944H44.1802C44.8142 35.944 45.3282 36.458 45.3282 37.091V38.044C45.3029 39.2451 45.7393 40.4102 46.5475 41.2991C47.3557 42.1881 48.4741 42.7331 49.6722 42.822C49.7562 42.822 49.8402 42.829 49.9222 42.829C51.0974 42.8315 52.228 42.3793 53.0772 41.567C53.5281 41.1376 53.8873 40.6214 54.1333 40.0494C54.3792 39.4774 54.5068 38.8616 54.5082 38.239V34.969C54.4568 32.2898 55.2442 29.6616 56.7602 27.452C58.2608 25.4249 59.0794 22.9739 59.0982 20.452C59.0982 11.91 49.3182 4.95996 37.2952 4.95996C25.2722 4.95996 15.4922 11.91 15.4922 20.452C15.4922 28.994 25.2722 35.944 37.2952 35.944ZM37.2952 7.25496C48.0522 7.25496 56.8032 13.175 56.8032 20.452C56.7813 22.4964 56.1115 24.4812 54.8902 26.121C53.0967 28.7185 52.1607 31.8119 52.2132 34.968V38.238C52.2144 38.5499 52.1514 38.8588 52.0283 39.1453C51.9051 39.4319 51.7243 39.6902 51.4972 39.904C51.2706 40.1185 51.0028 40.285 50.7102 40.3932C50.4175 40.5015 50.1059 40.5494 49.7942 40.534C49.1853 40.4685 48.6235 40.1757 48.221 39.7141C47.8186 39.2525 47.6051 38.6561 47.6232 38.044V37.091C47.6229 36.178 47.2601 35.3025 46.6144 34.657C45.9687 34.0116 45.0932 33.649 44.1802 33.649H37.2952C26.5382 33.649 17.7872 27.729 17.7872 20.452C17.7872 13.175 26.5382 7.25496 37.2952 7.25496Z" fill="white"/>
<path d="M25.0074 24.1314C25.2226 24.3465 25.5145 24.4673 25.8189 24.4673C26.1232 24.4673 26.4151 24.3465 26.6304 24.1314L28.1144 22.6474L29.5984 24.1314C29.8164 24.3313 30.1033 24.4394 30.3991 24.433C30.6949 24.4266 30.9768 24.3062 31.186 24.097C31.3952 23.8878 31.5156 23.6059 31.522 23.3101C31.5284 23.0143 31.4203 22.7274 31.2204 22.5094L29.7364 21.0254L31.2204 19.5414C31.4232 19.3238 31.5336 19.036 31.5284 18.7386C31.5233 18.4412 31.4029 18.1575 31.1926 17.9471C30.9824 17.7367 30.6987 17.6161 30.4013 17.6108C30.1039 17.6054 29.8161 17.7157 29.5984 17.9184L28.1144 19.4024L26.6304 17.9184C26.4133 17.712 26.1243 17.5987 25.8249 17.6024C25.5254 17.6062 25.2393 17.7268 25.0276 17.9386C24.8158 18.1503 24.6952 18.4364 24.6914 18.7359C24.6877 19.0353 24.801 19.3243 25.0074 19.5414L26.4914 21.0254L25.0074 22.5094C24.7925 22.7246 24.6719 23.0163 24.6719 23.3204C24.6719 23.6245 24.7925 23.9161 25.0074 24.1314ZM34.9994 24.4674H39.5894C39.8937 24.4674 40.1856 24.3465 40.4008 24.1313C40.616 23.9161 40.7369 23.6242 40.7369 23.3199C40.7369 23.0155 40.616 22.7237 40.4008 22.5085C40.1856 22.2933 39.8937 22.1724 39.5894 22.1724H34.9994C34.7009 22.1812 34.4176 22.3059 34.2096 22.5202C34.0016 22.7344 33.8852 23.0213 33.8852 23.3199C33.8852 23.6185 34.0016 23.9053 34.2096 24.1195C34.4176 24.3338 34.7009 24.4585 34.9994 24.4674ZM34.9994 19.8774H39.5894C39.8878 19.8685 40.1711 19.7438 40.3791 19.5295C40.5871 19.3153 40.7035 19.0285 40.7035 18.7299C40.7035 18.4313 40.5871 18.1444 40.3791 17.9302C40.1711 17.7159 39.8878 17.5912 39.5894 17.5824H34.9994C34.7009 17.5912 34.4176 17.7159 34.2096 17.9302C34.0016 18.1444 33.8852 18.4313 33.8852 18.7299C33.8852 19.0285 34.0016 19.3153 34.2096 19.5295C34.4176 19.7438 34.7009 19.8685 34.9994 19.8774ZM46.4744 24.4674C46.273 24.4668 46.0752 24.4136 45.9007 24.3131C45.7262 24.2126 45.5809 24.0683 45.4794 23.8944C45.4081 23.7563 45.3096 23.6342 45.1898 23.5353C45.07 23.4365 44.9314 23.3629 44.7823 23.3192C44.6333 23.2755 44.4769 23.2625 44.3227 23.281C44.1684 23.2994 44.0196 23.349 43.885 23.4267C43.7505 23.5044 43.6332 23.6086 43.5401 23.7329C43.447 23.8573 43.3802 23.9992 43.3435 24.1502C43.3069 24.3011 43.3013 24.4579 43.3271 24.6111C43.3528 24.7643 43.4094 24.9107 43.4934 25.0414C43.7293 25.4684 44.0534 25.8405 44.444 26.1329C44.8346 26.4252 45.283 26.6312 45.7592 26.7372C46.2355 26.8432 46.7289 26.8467 47.2066 26.7475C47.6844 26.6484 48.1356 26.4488 48.5304 26.1621C48.9252 25.8753 49.2545 25.5079 49.4965 25.0843C49.7386 24.6606 49.8878 24.1903 49.9343 23.7046C49.9808 23.2189 49.9236 22.7289 49.7664 22.2669C49.6091 21.805 49.3555 21.3818 49.0224 21.0254C49.3434 20.6672 49.5856 20.2457 49.7335 19.7881C49.8813 19.3305 49.9314 18.8469 49.8806 18.3686C49.8297 17.8904 49.679 17.4282 49.4383 17.0119C49.1975 16.5955 48.8721 16.2344 48.483 15.9518C48.0938 15.6691 47.6497 15.4714 47.1793 15.3712C46.7089 15.2711 46.2228 15.2708 45.7523 15.3704C45.2818 15.47 44.8374 15.6672 44.4479 15.9494C44.0585 16.2315 43.7326 16.5923 43.4914 17.0084C43.3542 17.2707 43.3238 17.5759 43.4063 17.8602C43.4888 18.1445 43.678 18.3859 43.9342 18.534C44.1905 18.6822 44.4941 18.7256 44.7817 18.6552C45.0692 18.5848 45.3185 18.4061 45.4774 18.1564C45.5779 17.9818 45.7227 17.8367 45.897 17.7358C46.0714 17.6349 46.2692 17.5816 46.4707 17.5814C46.6722 17.5811 46.8702 17.6339 47.0448 17.7344C47.2194 17.8349 47.3645 17.9796 47.4655 18.1539C47.5665 18.3282 47.6198 18.5261 47.6201 18.7275C47.6204 18.929 47.5677 19.127 47.4673 19.3017C47.3669 19.4763 47.2222 19.6215 47.0479 19.7225C46.8736 19.8236 46.6758 19.877 46.4744 19.8774C46.1759 19.8862 45.8926 20.0109 45.6846 20.2252C45.4766 20.4394 45.3602 20.7263 45.3602 21.0249C45.3602 21.3235 45.4766 21.6103 45.6846 21.8245C45.8926 22.0388 46.1759 22.1635 46.4744 22.1724C46.7728 22.1812 47.0561 22.3059 47.2641 22.5202C47.4721 22.7344 47.5885 23.0213 47.5885 23.3199C47.5885 23.6185 47.4721 23.9053 47.2641 24.1195C47.0561 24.3338 46.7728 24.4585 46.4744 24.4674Z" fill="white"/>
</g>
</g>
</g>
</g>
<defs>
<clipPath id="clip0_1_906">
<rect width="70" height="70" fill="white" transform="translate(0 0.370117)"/>
</clipPath>
<clipPath id="clip1_1_906">
<rect width="70" height="70" fill="white" transform="translate(0 0.370117)"/>
</clipPath>
<clipPath id="clip2_1_906">
<rect width="70" height="70" fill="white" transform="translate(0 0.370117)"/>
</clipPath>
</defs>
</svg>
