<svg width="70" height="71" viewBox="0 0 70 71" fill="none" xmlns="http://www.w3.org/2000/svg">
<g clip-path="url(#clip0_1_890)">
<g clip-path="url(#clip1_1_890)">
<g clip-path="url(#clip2_1_890)">
<mask id="mask0_1_890" style="mask-type:luminance" maskUnits="userSpaceOnUse" x="0" y="0" width="70" height="71">
<path d="M0 0.370117H70V70.3701H0V0.370117Z" fill="white"/>
</mask>
<g mask="url(#mask0_1_890)">
<path d="M68.447 12.1745L35.792 0.508456C35.2766 0.326609 34.7144 0.326609 34.199 0.508456L1.552 12.1745C1.10027 12.3371 0.709735 12.6352 0.433677 13.0281C0.157618 13.4209 0.0094834 13.8893 0.0094834 14.3695C0.0094834 14.8496 0.157618 15.318 0.433677 15.7109C0.709735 16.1037 1.10027 16.4018 1.552 16.5645L17.5 22.2625V29.5375C17.5 34.0735 33.21 34.2035 35 34.2035C36.79 34.2035 52.5 34.0735 52.5 29.5375V22.2625L56 21.0205V23.7035C55.9999 24.0099 56.0601 24.3134 56.1773 24.5966C56.2945 24.8797 56.4663 25.137 56.683 25.3538C56.8996 25.5705 57.1568 25.7425 57.44 25.8598C57.7231 25.9771 58.0265 26.0375 58.333 26.0375H60.667C60.9735 26.0375 61.2769 25.9771 61.56 25.8598C61.8432 25.7425 62.1004 25.5705 62.317 25.3538C62.5337 25.137 62.7055 24.8797 62.8227 24.5966C62.9399 24.3134 63.0001 24.0099 63 23.7035V20.2035C62.9966 19.6632 62.8665 19.1313 62.62 18.6505L68.453 16.5645C68.9047 16.4018 69.2953 16.1037 69.5713 15.7109C69.8474 15.318 69.9955 14.8496 69.9955 14.3695C69.9955 13.8893 69.8474 13.4209 69.5713 13.0281C69.2953 12.6352 68.9047 12.3371 68.453 12.1745H68.447ZM50.167 26.9705C45.723 24.9475 36.359 24.8705 35 24.8705C33.64 24.8705 24.277 24.9475 19.833 26.9705V16.8065C20.533 15.9085 26.035 14.3705 35 14.3705C43.965 14.3705 49.467 15.9085 50.167 16.8065V26.9705ZM35 31.8705C26.367 31.8705 20.945 30.4445 19.931 29.5375C20.945 28.6295 26.369 27.2035 35 27.2035C43.631 27.2035 49.055 28.6295 50.069 29.5375C49.055 30.4445 43.633 31.8705 35 31.8705ZM56.547 18.3425L52.5 19.7865V16.7035C52.5 12.1675 36.79 12.0375 35 12.0375C33.21 12.0375 17.5 12.1675 17.5 16.7035V19.7845L2.333 14.3705L35.016 2.70346L58.333 11.0365V16.9185C57.5954 17.1805 56.9667 17.6818 56.547 18.3425ZM60.667 23.7035H58.333V20.2035C58.333 19.8939 58.4559 19.5971 58.6748 19.3783C58.8937 19.1594 59.1905 19.0365 59.5 19.0365C59.8095 19.0365 60.1063 19.1594 60.3252 19.3783C60.5441 19.5971 60.667 19.8939 60.667 20.2035V23.7035ZM60.667 16.8715V11.8705L67.667 14.3705L60.667 16.8715ZM66.5 36.5375C66.43 36.5375 66.36 36.5435 66.291 36.5555C55.9396 38.1649 45.4755 38.939 35 38.8705C24.5245 38.939 14.0604 38.1649 3.709 36.5555C3.63992 36.5439 3.57003 36.5379 3.5 36.5375C2.683 36.5375 0 37.4625 0 49.3705C0 61.2785 2.683 62.2035 3.5 62.2035C3.57 62.2025 3.64 62.1955 3.709 62.1835C11.6629 60.9233 19.6914 60.191 27.742 59.9915L25.465 65.4545C25.294 65.8821 25.2538 66.3508 25.3497 66.8013C25.4455 67.2518 25.6731 67.6636 26.0034 67.9845C26.3338 68.3054 26.752 68.5209 27.205 68.6037C27.6581 68.6865 28.1255 68.6328 28.548 68.4495L29.441 68.0675L29.827 68.9555C30.0053 69.3764 30.3041 69.7353 30.6857 69.9871C31.0673 70.2388 31.5148 70.3722 31.972 70.3705H32.002C32.4625 70.3668 32.9115 70.2264 33.2922 69.9672C33.6728 69.708 33.9679 69.3416 34.14 68.9145L36.167 64.0635L38.187 68.8955C38.3574 69.3265 38.6524 69.697 39.0342 69.9597C39.4161 70.2224 39.8675 70.3654 40.331 70.3705H40.366C40.8202 70.3723 41.2649 70.2405 41.6449 69.9916C42.0248 69.7427 42.3232 69.3876 42.503 68.9705L42.893 68.0755L43.771 68.4525C44.1952 68.6397 44.6657 68.6958 45.122 68.6136C45.5783 68.5314 45.9996 68.3146 46.3318 67.9911C46.664 67.6676 46.8919 67.2522 46.9862 66.7982C47.0805 66.3443 47.0369 65.8725 46.861 65.4435L44.629 60.0885C51.8874 60.3453 59.1233 61.0466 66.296 62.1885C66.363 62.1995 66.431 62.2045 66.499 62.2035C67.316 62.2035 69.999 61.2785 69.999 49.3705C69.999 37.4625 67.317 36.5375 66.5 36.5375ZM38.733 41.1685C39.2178 42.95 39.5003 44.7806 39.575 46.6255C38.2755 46.0211 36.8389 45.7725 35.412 45.9052C33.985 46.0378 32.6188 46.5469 31.453 47.3805C31.3936 45.2853 31.1253 43.2013 30.652 41.1595C33.3453 41.215 36.0395 41.2173 38.733 41.1685ZM36.167 59.8705C35.0133 59.8705 33.8856 59.5284 32.9264 58.8874C31.9671 58.2465 31.2195 57.3355 30.778 56.2696C30.3365 55.2038 30.221 54.031 30.4461 52.8995C30.6711 51.768 31.2267 50.7287 32.0424 49.9129C32.8582 49.0971 33.8975 48.5416 35.029 48.3165C36.1605 48.0915 37.3334 48.207 38.3992 48.6485C39.465 49.09 40.376 49.8376 41.017 50.7968C41.6579 51.756 42 52.8838 42 54.0375C41.9981 55.5839 41.383 57.0665 40.2895 58.16C39.196 59.2535 37.7134 59.8686 36.167 59.8705ZM3.5 39.4535C4.39406 42.68 4.78764 46.0246 4.667 49.3705C4.787 52.7165 4.394 56.0605 3.5 59.2875C2.60593 56.061 2.21235 52.7164 2.333 49.3705C2.213 46.0245 2.606 42.6805 3.5 39.4535ZM5.857 59.4855C6.495 57.6355 7 54.5385 7 49.3705C7 44.2025 6.495 41.1055 5.856 39.2535C13.2696 40.2771 20.7339 40.8933 28.215 41.0995C28.915 43.7995 29.235 46.5825 29.167 49.3705C29.167 49.5405 29.167 49.7005 29.16 49.8625C28.4706 51.0063 28.0755 52.3032 28.0098 53.6371C27.9442 54.9711 28.2102 56.3005 28.784 57.5065L28.733 57.6305C21.0788 57.818 13.4413 58.438 5.857 59.4875V59.4855ZM31.975 68.0375L31.123 66.0775C31 65.7946 30.7699 65.572 30.4832 65.4583C30.1965 65.3445 29.8765 65.3489 29.593 65.4705L27.63 66.3385L30.366 59.7795C31.489 60.9176 32.9217 61.7007 34.486 62.0315L31.975 68.0375ZM42.74 65.4705C42.4565 65.3489 42.1365 65.3445 41.8498 65.4583C41.5631 65.572 41.333 65.7946 41.21 66.0775L40.347 68.0175L37.845 62.0285C39.4109 61.698 40.8452 60.9149 41.97 59.7765L44.7 66.3095L42.74 65.4705ZM66.267 59.8125C58.7713 58.6589 51.213 57.9576 43.633 57.7125L43.55 57.5115C44.2661 56.0025 44.4994 54.3094 44.2181 52.663C43.9368 51.0166 43.1545 49.497 41.978 48.3115C41.969 45.8919 41.6896 43.4809 41.145 41.1235C49.5576 40.935 57.9492 40.2014 66.267 38.9275C66.808 39.8475 67.667 43.4835 67.667 49.3705C67.667 55.2575 66.802 58.8925 66.267 59.8125Z" fill="white"/>
</g>
</g>
</g>
</g>
<defs>
<clipPath id="clip0_1_890">
<rect width="70" height="70" fill="white" transform="translate(0 0.370117)"/>
</clipPath>
<clipPath id="clip1_1_890">
<rect width="70" height="70" fill="white" transform="translate(0 0.370117)"/>
</clipPath>
<clipPath id="clip2_1_890">
<rect width="70" height="70" fill="white" transform="translate(0 0.370117)"/>
</clipPath>
</defs>
</svg>
