<svg width="70" height="71" viewBox="0 0 70 71" fill="none" xmlns="http://www.w3.org/2000/svg">
<g clip-path="url(#clip0_1_924)">
<g clip-path="url(#clip1_1_924)">
<g clip-path="url(#clip2_1_924)">
<mask id="mask0_1_924" style="mask-type:luminance" maskUnits="userSpaceOnUse" x="0" y="0" width="70" height="71">
<path d="M0 0.370117H70V70.3701H0V0.370117Z" fill="white"/>
</mask>
<g mask="url(#mask0_1_924)">
<path d="M66.5012 6.20312H60.6682C60.6682 5.89666 60.6079 5.5932 60.4906 5.31009C60.3733 5.02697 60.2013 4.76974 59.9846 4.55308C59.7678 4.33643 59.5105 4.1646 59.2274 4.04742C58.9442 3.93023 58.6407 3.86999 58.3342 3.87012H56.0012V2.70312C56.0012 2.08437 55.7554 1.49096 55.3179 1.05344C54.8804 0.615915 54.287 0.370117 53.6682 0.370117L37.3342 0.370117C36.4706 0.373253 35.6389 0.697631 35.0012 1.28012C34.3635 0.697631 33.5319 0.373253 32.6682 0.370117L16.3342 0.370117C15.7155 0.370117 15.1221 0.615915 14.6846 1.05344C14.247 1.49096 14.0012 2.08437 14.0012 2.70312V3.87012H11.6682C11.0495 3.87012 10.4561 4.11591 10.0186 4.55344C9.58104 4.99096 9.33525 5.58437 9.33525 6.20312H3.50125C2.54607 6.2337 1.64182 6.64106 0.986019 7.33621C0.330222 8.03135 -0.0238161 8.95778 0.00124538 9.91312V54.9931C-0.0238161 55.9485 0.330222 56.8749 0.986019 57.57C1.64182 58.2652 2.54607 58.6725 3.50125 58.7031H23.7812L21.4462 63.3701H17.5012C16.573 63.3701 15.6827 63.7389 15.0264 64.3952C14.37 65.0516 14.0012 65.9419 14.0012 66.8701C14.0012 67.7984 14.37 68.6886 15.0264 69.345C15.6827 70.0014 16.573 70.3701 17.5012 70.3701H52.5012C53.4295 70.3701 54.3197 70.0014 54.9761 69.345C55.6325 68.6886 56.0012 67.7984 56.0012 66.8701C56.0012 65.9419 55.6325 65.0516 54.9761 64.3952C54.3197 63.7389 53.4295 63.3701 52.5012 63.3701H48.5552L46.2222 58.7031H66.5022C67.4574 58.6725 68.3617 58.2652 69.0175 57.57C69.6733 56.8749 70.0273 55.9485 70.0022 54.9931V9.91312C70.0273 8.95778 69.6733 8.03135 69.0175 7.33621C68.3617 6.64106 67.4564 6.2337 66.5012 6.20312ZM37.3352 2.70312H53.6682V31.8701H37.3342C36.9361 31.8742 36.5416 31.9469 36.1682 32.0851V3.87012C36.1682 3.22612 36.6912 2.70312 37.3352 2.70312ZM33.8352 36.5371H16.3352V34.2031H32.6682C33.3122 34.2031 33.8342 34.7261 33.8342 35.3701L33.8352 36.5371ZM36.1672 35.3701C36.1672 34.7261 36.6892 34.2031 37.3332 34.2031H53.6672V36.5371H36.1672V35.3701ZM32.6672 2.70312C33.3112 2.70312 33.8332 3.22612 33.8332 3.87012V32.0851C33.4598 31.9469 33.0654 31.8742 32.6672 31.8701H16.3342V2.70312H32.6672ZM11.6672 6.20312H14.0012V36.5371C14.0012 36.8436 14.0616 37.147 14.1789 37.4301C14.2962 37.7133 14.4682 37.9705 14.6849 38.1872C14.9017 38.4038 15.159 38.5756 15.4421 38.6928C15.7253 38.81 16.0288 38.8702 16.3352 38.8701H53.6682C54.287 38.8701 54.8804 38.6243 55.3179 38.1868C55.7554 37.7493 56.0012 37.1559 56.0012 36.5371V6.20312H58.3352V41.2031H40.4372C39.7458 41.1877 39.0652 41.3766 38.4807 41.7463C37.8961 42.1159 37.4337 42.6498 37.1512 43.2811C36.973 43.7041 36.674 44.0652 36.2915 44.3191C35.9091 44.5729 35.4603 44.7084 35.0012 44.7084C34.5422 44.7084 34.0934 44.5729 33.7109 44.3191C33.3285 44.0652 33.0295 43.7041 32.8512 43.2811C32.5689 42.65 32.1066 42.1162 31.5222 41.7465C30.9379 41.3769 30.2575 41.1879 29.5662 41.2031H11.6682L11.6672 6.20312ZM53.6672 66.8701C53.6672 67.5141 53.1442 68.0371 52.5002 68.0371H17.5002C17.1907 68.0371 16.8939 67.9142 16.6751 67.6953C16.4562 67.4765 16.3332 67.1796 16.3332 66.8701C16.3332 66.5606 16.4562 66.2638 16.6751 66.0449C16.8939 65.8261 17.1907 65.7031 17.5002 65.7031H52.5002C53.1452 65.7031 53.6672 66.2261 53.6672 66.8701ZM45.9472 63.3701H24.0562L26.3892 58.7031H43.6132L45.9472 63.3701ZM66.5012 56.3701H3.50125C3.16676 56.3354 2.85865 56.1727 2.64134 55.9161C2.42403 55.6595 2.31435 55.3288 2.33525 54.9931V51.7031H7.00125C7.15731 51.7077 7.3127 51.6809 7.45822 51.6243C7.60374 51.5678 7.73643 51.4826 7.84843 51.3738C7.96043 51.265 8.04947 51.1349 8.11027 50.9911C8.17107 50.8473 8.2024 50.6927 8.2024 50.5366C8.2024 50.3805 8.17107 50.2259 8.11027 50.0821C8.04947 49.9383 7.96043 49.8082 7.84843 49.6994C7.73643 49.5907 7.60374 49.5055 7.45822 49.4489C7.3127 49.3923 7.15731 49.3655 7.00125 49.3701H2.33525V9.91312C2.31462 9.57765 2.42442 9.24719 2.6417 8.99078C2.85898 8.73436 3.16694 8.57182 3.50125 8.53712H9.33525V41.2031C9.33511 41.5096 9.39536 41.8131 9.51255 42.0962C9.62973 42.3794 9.80156 42.6367 10.0182 42.8534C10.2349 43.0702 10.4921 43.2421 10.7752 43.3594C11.0583 43.4767 11.3618 43.5371 11.6682 43.5371H29.5662C30.0402 43.5121 30.4842 43.7671 30.7022 44.1901C31.0593 45.0352 31.6575 45.7563 32.4221 46.2633C33.1867 46.7703 34.0838 47.0407 35.0012 47.0407C35.9187 47.0407 36.8157 46.7703 37.5803 46.2633C38.345 45.7563 38.9432 45.0352 39.3002 44.1901C39.4068 43.9834 39.5707 43.8118 39.7724 43.6959C39.9741 43.5801 40.205 43.525 40.4372 43.5371H58.3352C58.6417 43.5371 58.9452 43.4767 59.2283 43.3594C59.5114 43.2421 59.7686 43.0702 59.9853 42.8534C60.2019 42.6367 60.3738 42.3794 60.4909 42.0962C60.6081 41.8131 60.6684 41.5096 60.6682 41.2031V8.53712H66.5012C67.1962 8.60912 67.7112 9.21612 67.6682 9.91312V49.3701H11.6682C11.3648 49.379 11.0767 49.5058 10.8652 49.7236C10.6537 49.9414 10.5354 50.233 10.5354 50.5366C10.5354 50.8402 10.6537 51.1319 10.8652 51.3496C11.0767 51.5674 11.3648 51.6942 11.6682 51.7031H67.6682V54.9931C67.6891 55.3289 67.5793 55.6598 67.3618 55.9164C67.1443 56.1731 66.8359 56.3357 66.5012 56.3701Z" fill="white"/>
<path d="M19.835 8.53712H29.169C29.4785 8.53712 29.7753 8.41417 29.9942 8.19532C30.213 7.97646 30.336 7.67963 30.336 7.37012C30.336 7.06062 30.213 6.76379 29.9942 6.54493C29.7753 6.32608 29.4785 6.20313 29.169 6.20312H19.835C19.5255 6.20313 19.2286 6.32608 19.0098 6.54493C18.7909 6.76379 18.668 7.06062 18.668 7.37012C18.668 7.67963 18.7909 7.97646 19.0098 8.19532C19.2286 8.41417 19.5255 8.53712 19.835 8.53712Z" fill="white"/>
<path d="M29.168 10.8701H25.668C25.5119 10.8656 25.3565 10.8923 25.211 10.9489C25.0655 11.0055 24.9328 11.0907 24.8208 11.1994C24.7088 11.3082 24.6197 11.4384 24.5589 11.5822C24.4981 11.726 24.4668 11.8805 24.4668 12.0366C24.4668 12.1928 24.4981 12.3473 24.5589 12.4911C24.6197 12.6349 24.7088 12.765 24.8208 12.8738C24.9328 12.9826 25.0655 13.0678 25.211 13.1243C25.3565 13.1809 25.5119 13.2077 25.668 13.2031H29.168C29.324 13.2077 29.4794 13.1809 29.6249 13.1243C29.7705 13.0678 29.9032 12.9826 30.0152 12.8738C30.1272 12.765 30.2162 12.6349 30.277 12.4911C30.3378 12.3473 30.3691 12.1928 30.3691 12.0366C30.3691 11.8805 30.3378 11.726 30.277 11.5822C30.2162 11.4384 30.1272 11.3082 30.0152 11.1994C29.9032 11.0907 29.7705 11.0055 29.6249 10.9489C29.4794 10.8923 29.324 10.8656 29.168 10.8701ZM19.834 17.8701H29.168C29.4714 17.8612 29.7595 17.7344 29.971 17.5167C30.1825 17.2989 30.3008 17.0072 30.3008 16.7036C30.3008 16.4 30.1825 16.1084 29.971 15.8906C29.7595 15.6728 29.4714 15.546 29.168 15.5371H19.834C19.5305 15.546 19.2425 15.6728 19.0309 15.8906C18.8194 16.1084 18.7011 16.4 18.7011 16.7036C18.7011 17.0072 18.8194 17.2989 19.0309 17.5167C19.2425 17.7344 19.5305 17.8612 19.834 17.8701ZM19.834 27.2031H25.668C25.824 27.2077 25.9794 27.1809 26.1249 27.1243C26.2705 27.0678 26.4032 26.9826 26.5152 26.8738C26.6272 26.765 26.7162 26.6349 26.777 26.4911C26.8378 26.3473 26.8691 26.1928 26.8691 26.0366C26.8691 25.8805 26.8378 25.726 26.777 25.5822C26.7162 25.4384 26.6272 25.3082 26.5152 25.1994C26.4032 25.0907 26.2705 25.0055 26.1249 24.9489C25.9794 24.8923 25.824 24.8656 25.668 24.8701H19.834C19.6779 24.8656 19.5225 24.8923 19.377 24.9489C19.2315 25.0055 19.0988 25.0907 18.9868 25.1994C18.8748 25.3082 18.7857 25.4384 18.7249 25.5822C18.6641 25.726 18.6328 25.8805 18.6328 26.0366C18.6328 26.1928 18.6641 26.3473 18.7249 26.4911C18.7857 26.6349 18.8748 26.765 18.9868 26.8738C19.0988 26.9826 19.2315 27.0678 19.377 27.1243C19.5225 27.1809 19.6779 27.2077 19.834 27.2031ZM19.834 13.2031H21.001C21.157 13.2077 21.3124 13.1809 21.4579 13.1243C21.6035 13.0678 21.7362 12.9826 21.8482 12.8738C21.9602 12.765 22.0492 12.6349 22.11 12.4911C22.1708 12.3473 22.2021 12.1928 22.2021 12.0366C22.2021 11.8805 22.1708 11.726 22.11 11.5822C22.0492 11.4384 21.9602 11.3082 21.8482 11.1994C21.7362 11.0907 21.6035 11.0055 21.4579 10.9489C21.3124 10.8923 21.157 10.8656 21.001 10.8701H19.834C19.6779 10.8656 19.5225 10.8923 19.377 10.9489C19.2315 11.0055 19.0988 11.0907 18.9868 11.1994C18.8748 11.3082 18.7857 11.4384 18.7249 11.5822C18.6641 11.726 18.6328 11.8805 18.6328 12.0366C18.6328 12.1928 18.6641 12.3473 18.7249 12.4911C18.7857 12.6349 18.8748 12.765 18.9868 12.8738C19.0988 12.9826 19.2315 13.0678 19.377 13.1243C19.5225 13.1809 19.6779 13.2077 19.834 13.2031ZM19.834 22.5371H23.334C23.6435 22.5371 23.9403 22.4142 24.1592 22.1953C24.378 21.9765 24.501 21.6796 24.501 21.3701C24.501 21.0606 24.378 20.7638 24.1592 20.5449C23.9403 20.3261 23.6435 20.2031 23.334 20.2031H19.834C19.5245 20.2031 19.2276 20.3261 19.0088 20.5449C18.7899 20.7638 18.667 21.0606 18.667 21.3701C18.667 21.6796 18.7899 21.9765 19.0088 22.1953C19.2276 22.4142 19.5245 22.5371 19.834 22.5371ZM29.168 20.2031H28.001C27.6915 20.2031 27.3946 20.3261 27.1758 20.5449C26.9569 20.7638 26.834 21.0606 26.834 21.3701C26.834 21.6796 26.9569 21.9765 27.1758 22.1953C27.3946 22.4142 27.6915 22.5371 28.001 22.5371H29.168C29.4775 22.5371 29.7743 22.4142 29.9932 22.1953C30.212 21.9765 30.335 21.6796 30.335 21.3701C30.335 21.0606 30.212 20.7638 29.9932 20.5449C29.7743 20.3261 29.4775 20.2031 29.168 20.2031ZM40.834 8.53712H50.168C50.4775 8.53712 50.7743 8.41417 50.9932 8.19532C51.212 7.97646 51.335 7.67963 51.335 7.37012C51.335 7.06062 51.212 6.76379 50.9932 6.54493C50.7743 6.32608 50.4775 6.20313 50.168 6.20312H40.834C40.5245 6.20313 40.2276 6.32608 40.0088 6.54493C39.7899 6.76379 39.667 7.06062 39.667 7.37012C39.667 7.67963 39.7899 7.97646 40.0088 8.19532C40.2276 8.41417 40.5245 8.53712 40.834 8.53712ZM50.168 10.8701H46.668C46.5119 10.8656 46.3565 10.8923 46.211 10.9489C46.0655 11.0055 45.9328 11.0907 45.8208 11.1994C45.7088 11.3082 45.6197 11.4384 45.5589 11.5822C45.4981 11.726 45.4668 11.8805 45.4668 12.0366C45.4668 12.1928 45.4981 12.3473 45.5589 12.4911C45.6197 12.6349 45.7088 12.765 45.8208 12.8738C45.9328 12.9826 46.0655 13.0678 46.211 13.1243C46.3565 13.1809 46.5119 13.2077 46.668 13.2031H50.168C50.324 13.2077 50.4794 13.1809 50.6249 13.1243C50.7705 13.0678 50.9032 12.9826 51.0152 12.8738C51.1272 12.765 51.2162 12.6349 51.277 12.4911C51.3378 12.3473 51.3691 12.1928 51.3691 12.0366C51.3691 11.8805 51.3378 11.726 51.277 11.5822C51.2162 11.4384 51.1272 11.3082 51.0152 11.1994C50.9032 11.0907 50.7705 11.0055 50.6249 10.9489C50.4794 10.8923 50.324 10.8656 50.168 10.8701ZM40.834 17.8701H50.168C50.4714 17.8612 50.7595 17.7344 50.971 17.5167C51.1825 17.2989 51.3008 17.0072 51.3008 16.7036C51.3008 16.4 51.1825 16.1084 50.971 15.8906C50.7595 15.6728 50.4714 15.546 50.168 15.5371H40.834C40.5305 15.546 40.2425 15.6728 40.0309 15.8906C39.8194 16.1084 39.7011 16.4 39.7011 16.7036C39.7011 17.0072 39.8194 17.2989 40.0309 17.5167C40.2425 17.7344 40.5305 17.8612 40.834 17.8701ZM40.834 27.2031H46.668C46.824 27.2077 46.9794 27.1809 47.1249 27.1243C47.2705 27.0678 47.4032 26.9826 47.5152 26.8738C47.6272 26.765 47.7162 26.6349 47.777 26.4911C47.8378 26.3473 47.8691 26.1928 47.8691 26.0366C47.8691 25.8805 47.8378 25.726 47.777 25.5822C47.7162 25.4384 47.6272 25.3082 47.5152 25.1994C47.4032 25.0907 47.2705 25.0055 47.1249 24.9489C46.9794 24.8923 46.824 24.8656 46.668 24.8701H40.834C40.6779 24.8656 40.5225 24.8923 40.377 24.9489C40.2315 25.0055 40.0988 25.0907 39.9868 25.1994C39.8748 25.3082 39.7857 25.4384 39.7249 25.5822C39.6641 25.726 39.6328 25.8805 39.6328 26.0366C39.6328 26.1928 39.6641 26.3473 39.7249 26.4911C39.7857 26.6349 39.8748 26.765 39.9868 26.8738C40.0988 26.9826 40.2315 27.0678 40.377 27.1243C40.5225 27.1809 40.6779 27.2077 40.834 27.2031ZM40.834 13.2031H42.001C42.157 13.2077 42.3124 13.1809 42.4579 13.1243C42.6035 13.0678 42.7362 12.9826 42.8482 12.8738C42.9602 12.765 43.0492 12.6349 43.11 12.4911C43.1708 12.3473 43.2021 12.1928 43.2021 12.0366C43.2021 11.8805 43.1708 11.726 43.11 11.5822C43.0492 11.4384 42.9602 11.3082 42.8482 11.1994C42.7362 11.0907 42.6035 11.0055 42.4579 10.9489C42.3124 10.8923 42.157 10.8656 42.001 10.8701H40.834C40.6779 10.8656 40.5225 10.8923 40.377 10.9489C40.2315 11.0055 40.0988 11.0907 39.9868 11.1994C39.8748 11.3082 39.7857 11.4384 39.7249 11.5822C39.6641 11.726 39.6328 11.8805 39.6328 12.0366C39.6328 12.1928 39.6641 12.3473 39.7249 12.4911C39.7857 12.6349 39.8748 12.765 39.9868 12.8738C40.0988 12.9826 40.2315 13.0678 40.377 13.1243C40.5225 13.1809 40.6779 13.2077 40.834 13.2031ZM40.834 22.5371H44.334C44.6435 22.5371 44.9403 22.4142 45.1592 22.1953C45.378 21.9765 45.501 21.6796 45.501 21.3701C45.501 21.0606 45.378 20.7638 45.1592 20.5449C44.9403 20.3261 44.6435 20.2031 44.334 20.2031H40.834C40.5245 20.2031 40.2276 20.3261 40.0088 20.5449C39.7899 20.7638 39.667 21.0606 39.667 21.3701C39.667 21.6796 39.7899 21.9765 40.0088 22.1953C40.2276 22.4142 40.5245 22.5371 40.834 22.5371ZM50.168 20.2031H49.001C48.6915 20.2031 48.3946 20.3261 48.1758 20.5449C47.9569 20.7638 47.834 21.0606 47.834 21.3701C47.834 21.6796 47.9569 21.9765 48.1758 22.1953C48.3946 22.4142 48.6915 22.5371 49.001 22.5371H50.168C50.4775 22.5371 50.7743 22.4142 50.9932 22.1953C51.212 21.9765 51.335 21.6796 51.335 21.3701C51.335 21.0606 51.212 20.7638 50.9932 20.5449C50.7743 20.3261 50.4775 20.2031 50.168 20.2031Z" fill="white"/>
</g>
</g>
</g>
</g>
<defs>
<clipPath id="clip0_1_924">
<rect width="70" height="70" fill="white" transform="translate(0 0.370117)"/>
</clipPath>
<clipPath id="clip1_1_924">
<rect width="70" height="70" fill="white" transform="translate(0 0.370117)"/>
</clipPath>
<clipPath id="clip2_1_924">
<rect width="70" height="70" fill="white" transform="translate(0 0.370117)"/>
</clipPath>
</defs>
</svg>
