<svg width="16" height="17" viewBox="0 0 16 17" fill="none" xmlns="http://www.w3.org/2000/svg">
<path d="M15.3545 5.82474L13.4858 7.69349C13.1083 12.0697 9.41764 15.471 5.00076 15.471C4.09326 15.471 3.34514 15.3272 2.77701 15.0435C2.31889 14.8141 2.13139 14.5685 2.08451 14.4985C2.04272 14.4358 2.01562 14.3645 2.00526 14.2899C1.9949 14.2152 2.00154 14.1392 2.02468 14.0675C2.04782 13.9958 2.08686 13.9303 2.13889 13.8758C2.19091 13.8213 2.25458 13.7793 2.32514 13.7529C2.34139 13.7466 3.84014 13.171 4.79201 12.0754C4.26413 11.6413 3.80331 11.1317 3.42451 10.5629C2.64951 9.41224 1.78201 7.41349 2.04951 4.42661C2.05799 4.3317 2.09341 4.24119 2.15161 4.16574C2.2098 4.09029 2.28835 4.03304 2.37799 4.00072C2.46763 3.96841 2.56464 3.96239 2.65759 3.98337C2.75054 4.00434 2.83556 4.05144 2.90264 4.11911C2.92451 4.14099 4.98264 6.18786 7.49889 6.85161V6.47099C7.49793 6.07186 7.57684 5.67657 7.73098 5.30841C7.88512 4.94024 8.11136 4.60663 8.39639 4.32724C8.6732 4.05081 9.00257 3.83264 9.36507 3.68558C9.72757 3.53852 10.1159 3.46555 10.507 3.47099C11.0317 3.47616 11.5462 3.61702 12.0004 3.87986C12.4545 4.14271 12.833 4.5186 13.0989 4.97099H15.0008C15.0997 4.97091 15.1965 5.00019 15.2788 5.05513C15.3611 5.11006 15.4252 5.18818 15.4631 5.27959C15.501 5.371 15.5109 5.4716 15.4915 5.56864C15.4722 5.66568 15.4245 5.75481 15.3545 5.82474Z" fill="#06625F"/>
</svg>
