<svg width="16" height="17" viewBox="0 0 16 17" fill="none" xmlns="http://www.w3.org/2000/svg">
<path d="M14.6456 5.31571C14.5867 5.0853 14.4739 4.87219 14.3164 4.69398C14.159 4.51576 13.9614 4.37753 13.74 4.29071C11.5975 3.46321 8.1875 3.47071 8 3.47071C7.8125 3.47071 4.4025 3.46321 2.26 4.29071C2.0386 4.37753 1.84102 4.51576 1.68356 4.69398C1.5261 4.87219 1.41327 5.0853 1.35438 5.31571C1.1925 5.93946 1 7.07946 1 8.97071C1 10.862 1.1925 12.002 1.35438 12.6257C1.41318 12.8562 1.52597 13.0695 1.68344 13.2478C1.8409 13.4261 2.03853 13.5644 2.26 13.6513C4.3125 14.4432 7.525 14.4707 7.95875 14.4707H8.04125C8.475 14.4707 11.6894 14.4432 13.74 13.6513C13.9615 13.5644 14.1591 13.4261 14.3166 13.2478C14.474 13.0695 14.5868 12.8562 14.6456 12.6257C14.8075 12.0007 15 10.862 15 8.97071C15 7.07946 14.8075 5.93946 14.6456 5.31571ZM10.0369 9.37821L7.53687 11.1282C7.46209 11.1806 7.37439 11.2115 7.28328 11.2176C7.19218 11.2237 7.10115 11.2047 7.02006 11.1627C6.93898 11.1207 6.87095 11.0573 6.82334 10.9794C6.77573 10.9015 6.75037 10.812 6.75 10.7207V7.22071C6.75003 7.12924 6.77514 7.03953 6.82261 6.96135C6.87008 6.88316 6.93809 6.8195 7.01923 6.77728C7.10038 6.73507 7.19155 6.71592 7.28282 6.72192C7.37409 6.72793 7.46196 6.75885 7.53687 6.81133L10.0369 8.56133C10.1026 8.60745 10.1563 8.66873 10.1934 8.73999C10.2304 8.81124 10.2498 8.89038 10.2498 8.97071C10.2498 9.05103 10.2304 9.13017 10.1934 9.20142C10.1563 9.27268 10.1026 9.33396 10.0369 9.38008V9.37821Z" fill="#06625F"/>
</svg>
